# This file uses centimeters as units for non-parametric coordinates.

mtllib BearHead-0804.mtl
g default
v -2.241300 12.237400 1.803600
v -1.611060 12.582839 3.465100
v -1.847291 13.296120 3.363319
v -2.190630 13.486749 1.616970
v -1.393850 14.625060 1.632220
v -2.249880 15.141420 1.186820
v -2.905979 13.486729 1.138640
v -0.696250 13.302139 4.275990
v 0.004670 12.629540 4.183480
v -0.886750 13.817859 4.305560
v 0.004670 15.216429 1.999770
v 0.004670 15.533749 1.660790
v -0.604610 15.532129 1.615931
v -0.650410 15.189740 1.944209
v 0.004670 10.964081 0.864780
v -1.592270 11.522680 0.815690
v -1.845850 11.063840 0.050990
v 0.004670 10.217890 -0.014540
v -2.915169 11.915770 0.798050
v -1.473580 11.825290 1.928089
v -0.797610 15.537398 1.557512
v -0.989220 15.141251 1.888670
v -3.381930 15.822600 -1.841039
v -3.191839 15.822649 -0.803070
v -3.545419 16.178297 -0.978800
v -3.669740 16.108440 -1.841039
v 0.004670 13.811389 4.471109
v 0.004670 13.305829 4.437669
v -1.898260 17.297771 -1.841039
v -2.477079 17.464510 -1.841039
v -2.534679 17.337511 -1.120550
v -1.832080 17.171529 -0.840130
v -1.452370 12.122882 3.529827
v 0.004670 11.563681 1.988519
v 0.004670 12.110280 3.760928
v -3.194450 14.870959 0.877450
v -3.497149 13.486639 0.748970
v -4.016719 11.464321 0.102540
v -4.939980 11.502240 -0.736410
v -4.945020 10.609130 -0.763610
v -3.941549 14.851379 -0.767520
v -3.619859 14.858780 0.176751
v -2.980579 15.801880 0.150250
v -3.968950 12.197821 0.140600
v -3.832509 13.486310 0.169070
v -4.194410 13.485979 -0.751950
v -4.405089 12.280539 -0.738970
v -2.123370 10.611040 -0.801540
v 0.004670 9.165991 -1.002788
v 0.004670 16.892169 -0.015219
v -0.691500 17.122581 -0.111450
v 0.004670 17.123909 -0.812900
v -0.562640 17.334990 -0.802690
v 0.004670 17.269359 -1.841039
v -0.454520 17.457651 -1.841039
v -4.110638 14.861429 -1.841039
v -1.743102 17.035049 -0.041019
v -2.659189 15.536279 1.086550
v -5.284149 11.364360 -1.841039
v -5.285299 10.277752 -1.840420
v -4.603679 12.334660 -1.841039
v -2.171960 10.276581 -1.840870
v 0.004670 8.712691 -1.840388
v -4.394110 13.485770 -1.841039
v -3.337050 17.243619 -1.841039
v -3.260069 17.146439 -1.352619
v -3.775440 16.421950 -1.841039
v -3.620009 16.444130 -1.246130
v 2.250640 12.237400 1.803600
v 2.199970 13.486749 1.616970
v 1.856630 13.296120 3.363319
v 1.620400 12.582839 3.465100
v 2.915320 13.486729 1.138640
v 2.259220 15.141420 1.186820
v 1.403189 14.625060 1.632220
v 0.705590 13.302139 4.275990
v 0.896090 13.817859 4.305560
v 0.659749 15.189740 1.944209
v 0.613950 15.532129 1.615931
v 1.855190 11.063840 0.050990
v 1.601610 11.522680 0.815690
v 1.482920 11.825290 1.928089
v 2.924510 11.915770 0.798050
v 0.998560 15.141251 1.888670
v 0.806949 15.537398 1.557512
v 3.391270 15.822600 -1.841039
v 3.679080 16.108440 -1.841039
v 3.554760 16.178297 -0.978800
v 3.201180 15.822649 -0.803070
v 1.907600 17.297771 -1.841039
v 1.841420 17.171529 -0.840130
v 2.544020 17.337511 -1.120550
v 2.486420 17.464510 -1.841039
v 1.461710 12.122882 3.529827
v 3.203790 14.870959 0.877450
v 3.506490 13.486639 0.748970
v 4.954358 10.609130 -0.763610
v 4.949320 11.502240 -0.736410
v 4.026059 11.464321 0.102540
v 2.989920 15.801880 0.150250
v 3.629200 14.858780 0.176751
v 3.950890 14.851379 -0.767520
v 3.978290 12.197821 0.140600
v 4.414430 12.280539 -0.738970
v 4.203750 13.485979 -0.751950
v 3.841850 13.486310 0.169070
v 2.132710 10.611040 -0.801540
v 0.700840 17.122581 -0.111450
v 0.571980 17.334990 -0.802690
v 0.463860 17.457651 -1.841039
v 4.119979 14.861429 -1.841039
v 1.752438 17.035049 -0.041019
v 2.668529 15.536279 1.086550
v 5.294641 10.277752 -1.840420
v 5.293490 11.364360 -1.841039
v 4.613020 12.334660 -1.841039
v 2.181299 10.276581 -1.840870
v 4.403450 13.485770 -1.841039
v 3.269410 17.146439 -1.352619
v 3.346390 17.243619 -1.841039
v 3.629350 16.444130 -1.246130
v 3.784779 16.421950 -1.841039
vt 0.290259 0.612090
vt 0.385340 0.575669
vt 0.394195 0.606081
vt 0.329530 0.676515
vt 0.397126 0.719860
vt 0.362876 0.765240
vt 0.287572 0.699935
vt 0.459825 0.559088
vt 0.457296 0.512557
vt 0.462608 0.585313
vt 0.501015 0.733598
vt 0.501020 0.759556
vt 0.464372 0.761106
vt 0.460836 0.734574
vt 0.246083 0.461694
vt 0.231956 0.550625
vt 0.179853 0.548811
vt 0.191531 0.437362
vt 0.219489 0.634096
vt 0.295425 0.550223
vt 0.451163 0.763347
vt 0.437404 0.734398
vt 0.245186 0.921985
vt 0.292734 0.883356
vt 0.289801 0.911293
vt 0.254382 0.941044
vt 0.500986 0.574487
vt 0.500980 0.540847
vt 0.394823 0.986447
vt 0.361998 0.990721
vt 0.360417 0.951446
vt 0.395375 0.929330
vt 0.381583 0.552330
vt 0.309929 0.476394
vt 0.414550 0.489670
vt 0.309504 0.775529
vt 0.254503 0.721684
vt 0.148438 0.666558
vt 0.096344 0.711683
vt 0.067423 0.681237
vt 0.238107 0.838562
vt 0.276228 0.802603
vt 0.327148 0.839126
vt 0.176164 0.694557
vt 0.225351 0.745298
vt 0.184702 0.783227
vt 0.137282 0.736776
vt 0.123156 0.541374
vt 0.123604 0.399596
vt 0.501042 0.879803
vt 0.462246 0.890615
vt 0.501051 0.927461
vt 0.467852 0.929822
vt 0.501062 0.985133
vt 0.473816 0.986635
vt 0.196344 0.879766
vt 0.406615 0.886655
vt 0.351708 0.790824
vt 0.041047 0.743704
vt 0.005814 0.687981
vt 0.094685 0.784007
vt 0.063956 0.525020
vt 0.075477 0.380170
vt 0.141284 0.826400
vt 0.311022 0.984944
vt 0.320200 0.959471
vt 0.265812 0.956292
vt 0.288478 0.931491
vt 0.711726 0.612012
vt 0.672478 0.676453
vt 0.607788 0.606042
vt 0.616632 0.575627
vt 0.714446 0.699857
vt 0.639167 0.765189
vt 0.604900 0.719823
vt 0.542141 0.559073
vt 0.544651 0.512540
vt 0.539368 0.585299
vt 0.541195 0.734560
vt 0.537668 0.761093
vt 0.755846 0.461600
vt 0.810388 0.437248
vt 0.822105 0.548693
vt 0.770007 0.550526
vt 0.706540 0.550148
vt 0.782503 0.633992
vt 0.564627 0.734376
vt 0.550879 0.763330
vt 0.756914 0.921890
vt 0.747725 0.940952
vt 0.712295 0.911215
vt 0.709351 0.883279
vt 0.607301 0.986408
vt 0.606729 0.929291
vt 0.641694 0.951394
vt 0.640128 0.990671
vt 0.620383 0.545782
vt 0.587391 0.489638
vt 0.692007 0.476324
vt 0.692542 0.775459
vt 0.747523 0.721593
vt 0.934585 0.681077
vt 0.905676 0.711533
vt 0.853565 0.666428
vt 0.674922 0.839062
vt 0.725828 0.802521
vt 0.763962 0.838466
vt 0.825850 0.694438
vt 0.864748 0.736642
vt 0.817345 0.783111
vt 0.776684 0.745196
vt 0.878800 0.541236
vt 0.878301 0.399458
vt 0.539842 0.890601
vt 0.534250 0.929810
vt 0.528308 0.986625
vt 0.805740 0.879654
vt 0.595472 0.886621
vt 0.650344 0.790770
vt 0.996196 0.687798
vt 0.960985 0.743534
vt 0.907362 0.783857
vt 0.937993 0.524859
vt 0.926423 0.380015
vt 0.860780 0.826268
vt 0.681915 0.959404
vt 0.691103 0.984874
vt 0.713625 0.931413
vt 0.736302 0.956205
vn -0.960015 -0.048896 0.275646
vn -0.960015 -0.048896 0.275646
vn -0.960015 -0.048896 0.275646
vn -0.960015 -0.048896 0.275646
vn -0.440769 0.217195 0.870947
vn -0.440769 0.217195 0.870947
vn -0.440769 0.217195 0.870947
vn -0.440769 0.217195 0.870947
vn -0.477104 -0.317113 0.819641
vn -0.477104 -0.317113 0.819641
vn -0.477104 -0.317113 0.819641
vn -0.477104 -0.317113 0.819641
vn -0.598272 -0.264417 0.756409
vn -0.598272 -0.264417 0.756409
vn -0.598272 -0.264417 0.756409
vn -0.071332 0.711701 0.698851
vn -0.071332 0.711701 0.698851
vn -0.071332 0.711701 0.698851
vn -0.071332 0.711701 0.698851
vn -0.301171 -0.746320 0.593551
vn -0.301171 -0.746320 0.593551
vn -0.301171 -0.746320 0.593551
vn -0.301171 -0.746320 0.593551
vn -0.354504 -0.852642 0.383835
vn -0.354504 -0.852642 0.383835
vn -0.354504 -0.852642 0.383835
vn -0.354504 -0.852642 0.383835
vn -0.205075 0.687684 0.696444
vn -0.205075 0.687684 0.696444
vn -0.205075 0.687684 0.696444
vn -0.205075 0.687684 0.696444
vn -0.608369 0.685041 0.400757
vn -0.608369 0.685041 0.400757
vn -0.608369 0.685041 0.400757
vn -0.608369 0.685041 0.400757
vn -0.719176 -0.679742 0.144000
vn -0.719176 -0.679742 0.144000
vn -0.719176 -0.679742 0.144000
vn -0.719176 -0.679742 0.144000
vn -0.200504 -0.097429 0.974836
vn -0.200504 -0.097429 0.974836
vn -0.200504 -0.097429 0.974836
vn -0.200504 -0.097429 0.974836
vn 0.219731 0.965333 0.140892
vn 0.219731 0.965333 0.140892
vn 0.219731 0.965333 0.140892
vn 0.219731 0.965333 0.140892
vn -0.114002 -0.963629 0.241708
vn -0.114002 -0.963629 0.241708
vn -0.114002 -0.963629 0.241708
vn -0.114002 -0.963629 0.241708
vn -0.688621 -0.672934 0.270113
vn -0.688621 -0.672934 0.270113
vn -0.688621 -0.672934 0.270113
vn -0.688621 -0.672934 0.270113
vn -0.081769 0.865906 0.493478
vn -0.081769 0.865906 0.493478
vn -0.081769 0.865906 0.493478
vn -0.081769 0.865906 0.493478
vn -0.270560 -0.368846 0.889241
vn -0.270560 -0.368846 0.889241
vn -0.270560 -0.368846 0.889241
vn -0.270560 -0.368846 0.889241
vn -0.798287 0.560269 0.220988
vn -0.798287 0.560269 0.220988
vn -0.798287 0.560269 0.220988
vn -0.798287 0.560269 0.220988
vn -0.550705 0.139599 0.822944
vn -0.550705 0.139599 0.822944
vn -0.550705 0.139599 0.822944
vn -0.425690 0.084174 0.900945
vn -0.425690 0.084174 0.900945
vn -0.425690 0.084174 0.900945
vn -0.425690 0.084174 0.900945
vn -0.672756 -0.018648 0.739629
vn -0.672756 -0.018648 0.739629
vn -0.672756 -0.018648 0.739629
vn -0.785290 0.576949 0.224609
vn -0.785290 0.576949 0.224609
vn -0.785290 0.576949 0.224609
vn -0.785290 0.576949 0.224609
vn -0.905861 0.126379 0.404283
vn -0.905861 0.126379 0.404283
vn -0.905861 0.126379 0.404283
vn -0.905861 0.126379 0.404283
vn -0.358661 -0.695469 0.622644
vn -0.358661 -0.695469 0.622644
vn -0.358661 -0.695469 0.622644
vn -0.358661 -0.695469 0.622644
vn -0.716678 -0.139594 0.683291
vn -0.716678 -0.139594 0.683291
vn -0.716678 -0.139594 0.683291
vn -0.716678 -0.139594 0.683291
vn -0.531089 -0.009217 0.847266
vn -0.531089 -0.009217 0.847266
vn -0.531089 -0.009217 0.847266
vn -0.671351 -0.098284 0.734594
vn -0.671351 -0.098284 0.734594
vn -0.671351 -0.098284 0.734594
vn -0.671351 -0.098284 0.734594
vn 0.061627 0.755176 0.652618
vn 0.061627 0.755176 0.652618
vn 0.061627 0.755176 0.652618
vn 0.061627 0.755176 0.652618
vn -0.166504 -0.759904 0.628349
vn -0.166504 -0.759904 0.628349
vn -0.166504 -0.759904 0.628349
vn -0.166504 -0.759904 0.628349
vn -0.251346 -0.892881 0.373615
vn -0.251346 -0.892881 0.373615
vn -0.251346 -0.892881 0.373615
vn -0.251346 -0.892881 0.373615
vn 0.296875 0.907716 0.296508
vn 0.296875 0.907716 0.296508
vn 0.296875 0.907716 0.296508
vn 0.296875 0.907716 0.296508
vn 0.360310 0.922492 0.138508
vn 0.360310 0.922492 0.138508
vn 0.360310 0.922492 0.138508
vn 0.360310 0.922492 0.138508
vn -0.785567 0.603535 0.136493
vn -0.785567 0.603535 0.136493
vn -0.785567 0.603535 0.136493
vn -0.785567 0.603535 0.136493
vn -0.209274 -0.343927 0.915379
vn -0.209274 -0.343927 0.915379
vn -0.209274 -0.343927 0.915379
vn -0.485663 -0.052681 0.872557
vn -0.485663 -0.052681 0.872557
vn -0.485663 -0.052681 0.872557
vn -0.041232 0.725783 0.686687
vn -0.041232 0.725783 0.686687
vn -0.041232 0.725783 0.686687
vn -0.041232 0.725783 0.686687
vn -0.854245 0.136245 0.501700
vn -0.854245 0.136245 0.501700
vn -0.854245 0.136245 0.501700
vn -0.854245 0.136245 0.501700
vn -0.392225 -0.177219 0.902637
vn -0.392225 -0.177219 0.902637
vn -0.392225 -0.177219 0.902637
vn -0.392225 -0.177219 0.902637
vn -0.119097 0.875098 0.469063
vn -0.119097 0.875098 0.469063
vn -0.119097 0.875098 0.469063
vn -0.119097 0.875098 0.469063
vn -0.954068 -0.000916 0.299588
vn -0.954068 -0.000916 0.299588
vn -0.954068 -0.000916 0.299588
vn -0.954068 -0.000916 0.299588
vn -0.807992 0.561907 0.177230
vn -0.807992 0.561907 0.177230
vn -0.807992 0.561907 0.177230
vn -0.807992 0.561907 0.177230
vn 0.001923 -0.953995 0.299817
vn 0.001923 -0.953995 0.299817
vn 0.001923 -0.953995 0.299817
vn 0.001923 -0.953995 0.299817
vn -0.685420 0.705381 0.180657
vn -0.685420 0.705381 0.180657
vn -0.685420 0.705381 0.180657
vn -0.685420 0.705381 0.180657
vn -0.928899 0.155681 0.336022
vn -0.928899 0.155681 0.336022
vn -0.928899 0.155681 0.336022
vn -0.928899 0.155681 0.336022
vn -0.050756 -0.777328 0.627045
vn -0.050756 -0.777328 0.627045
vn -0.050756 -0.777328 0.627045
vn -0.050756 -0.777328 0.627045
vn -0.528001 -0.778144 0.340158
vn -0.528001 -0.778144 0.340158
vn -0.528001 -0.778144 0.340158
vn -0.528001 -0.778144 0.340158
vn -0.413304 0.529603 0.740743
vn -0.413304 0.529603 0.740743
vn -0.413304 0.529603 0.740743
vn -0.754329 0.502906 0.421988
vn -0.754329 0.502906 0.421988
vn -0.754329 0.502906 0.421988
vn -0.754329 0.502906 0.421988
vn -0.969542 0.182133 0.163758
vn -0.969542 0.182133 0.163758
vn -0.969542 0.182133 0.163758
vn -0.969542 0.182133 0.163758
vn -0.119086 0.985860 0.117896
vn -0.119086 0.985860 0.117896
vn -0.119086 0.985860 0.117896
vn -0.119086 0.985860 0.117896
vn -0.101481 0.969272 0.224082
vn -0.101481 0.969272 0.224082
vn -0.101481 0.969272 0.224082
vn -0.101481 0.969272 0.224082
vn -0.271863 0.945430 0.179593
vn -0.271863 0.945430 0.179593
vn -0.271863 0.945430 0.179593
vn -0.271863 0.945430 0.179593
vn -0.858570 0.464840 0.216290
vn -0.858570 0.464840 0.216290
vn -0.858570 0.464840 0.216290
vn -0.858570 0.464840 0.216290
vn -0.248996 0.300851 0.920592
vn -0.248996 0.300851 0.920592
vn -0.248996 0.300851 0.920592
vn -0.248996 0.300851 0.920592
vn -0.447576 0.433750 0.782008
vn -0.447576 0.433750 0.782008
vn -0.447576 0.433750 0.782008
vn -0.447576 0.433750 0.782008
vn -0.958282 -0.207155 0.196930
vn -0.958282 -0.207155 0.196930
vn -0.958282 -0.207155 0.196930
vn -0.958282 -0.207155 0.196930
vn -0.745086 0.272750 0.608650
vn -0.745086 0.272750 0.608650
vn -0.745086 0.272750 0.608650
vn -0.745086 0.272750 0.608650
vn -0.966869 0.183125 0.177845
vn -0.966869 0.183125 0.177845
vn -0.966869 0.183125 0.177845
vn -0.966869 0.183125 0.177845
vn 0.960015 -0.048896 0.275646
vn 0.960015 -0.048896 0.275646
vn 0.960015 -0.048896 0.275646
vn 0.960015 -0.048896 0.275646
vn 0.440769 0.217195 0.870947
vn 0.440769 0.217195 0.870947
vn 0.440769 0.217195 0.870947
vn 0.440769 0.217195 0.870947
vn 0.477104 -0.317113 0.819641
vn 0.477104 -0.317113 0.819641
vn 0.477104 -0.317113 0.819641
vn 0.477104 -0.317113 0.819641
vn 0.598272 -0.264417 0.756409
vn 0.598272 -0.264417 0.756409
vn 0.598272 -0.264417 0.756409
vn 0.071332 0.711701 0.698851
vn 0.071332 0.711701 0.698851
vn 0.071332 0.711701 0.698851
vn 0.071332 0.711701 0.698851
vn 0.301171 -0.746320 0.593551
vn 0.301171 -0.746320 0.593551
vn 0.301171 -0.746320 0.593551
vn 0.301171 -0.746320 0.593551
vn 0.354504 -0.852642 0.383835
vn 0.354504 -0.852642 0.383835
vn 0.354504 -0.852642 0.383835
vn 0.354504 -0.852642 0.383835
vn 0.205075 0.687684 0.696444
vn 0.205075 0.687684 0.696444
vn 0.205075 0.687684 0.696444
vn 0.205075 0.687684 0.696444
vn 0.608369 0.685041 0.400757
vn 0.608369 0.685041 0.400757
vn 0.608369 0.685041 0.400757
vn 0.608369 0.685041 0.400757
vn 0.719176 -0.679742 0.144000
vn 0.719176 -0.679742 0.144000
vn 0.719176 -0.679742 0.144000
vn 0.719176 -0.679742 0.144000
vn 0.200504 -0.097429 0.974836
vn 0.200504 -0.097429 0.974836
vn 0.200504 -0.097429 0.974836
vn 0.200504 -0.097429 0.974836
vn -0.219731 0.965333 0.140892
vn -0.219731 0.965333 0.140892
vn -0.219731 0.965333 0.140892
vn -0.219731 0.965333 0.140892
vn 0.114002 -0.963629 0.241708
vn 0.114002 -0.963629 0.241708
vn 0.114002 -0.963629 0.241708
vn 0.114002 -0.963629 0.241708
vn 0.688621 -0.672934 0.270113
vn 0.688621 -0.672934 0.270113
vn 0.688621 -0.672934 0.270113
vn 0.688621 -0.672934 0.270113
vn 0.081769 0.865906 0.493478
vn 0.081769 0.865906 0.493478
vn 0.081769 0.865906 0.493478
vn 0.081769 0.865906 0.493478
vn 0.270560 -0.368846 0.889241
vn 0.270560 -0.368846 0.889241
vn 0.270560 -0.368846 0.889241
vn 0.270560 -0.368846 0.889241
vn 0.798287 0.560269 0.220988
vn 0.798287 0.560269 0.220988
vn 0.798287 0.560269 0.220988
vn 0.798287 0.560269 0.220988
vn 0.550705 0.139599 0.822944
vn 0.550705 0.139599 0.822944
vn 0.550705 0.139599 0.822944
vn 0.425690 0.084174 0.900945
vn 0.425690 0.084174 0.900945
vn 0.425690 0.084174 0.900945
vn 0.425690 0.084174 0.900945
vn 0.672756 -0.018648 0.739629
vn 0.672756 -0.018648 0.739629
vn 0.672756 -0.018648 0.739629
vn 0.785290 0.576949 0.224609
vn 0.785290 0.576949 0.224609
vn 0.785290 0.576949 0.224609
vn 0.785290 0.576949 0.224609
vn 0.905861 0.126379 0.404283
vn 0.905861 0.126379 0.404283
vn 0.905861 0.126379 0.404283
vn 0.905861 0.126379 0.404283
vn 0.358661 -0.695469 0.622644
vn 0.358661 -0.695469 0.622644
vn 0.358661 -0.695469 0.622644
vn 0.358661 -0.695469 0.622644
vn 0.716678 -0.139594 0.683291
vn 0.716678 -0.139594 0.683291
vn 0.716678 -0.139594 0.683291
vn 0.716678 -0.139594 0.683291
vn 0.531089 -0.009217 0.847266
vn 0.531089 -0.009217 0.847266
vn 0.531089 -0.009217 0.847266
vn 0.671351 -0.098284 0.734594
vn 0.671351 -0.098284 0.734594
vn 0.671351 -0.098284 0.734594
vn 0.671351 -0.098284 0.734594
vn -0.061627 0.755176 0.652618
vn -0.061627 0.755176 0.652618
vn -0.061627 0.755176 0.652618
vn -0.061627 0.755176 0.652618
vn 0.166504 -0.759904 0.628349
vn 0.166504 -0.759904 0.628349
vn 0.166504 -0.759904 0.628349
vn 0.166504 -0.759904 0.628349
vn 0.251346 -0.892881 0.373615
vn 0.251346 -0.892881 0.373615
vn 0.251346 -0.892881 0.373615
vn 0.251346 -0.892881 0.373615
vn -0.296875 0.907716 0.296508
vn -0.296875 0.907716 0.296508
vn -0.296875 0.907716 0.296508
vn -0.296875 0.907716 0.296508
vn -0.360310 0.922492 0.138508
vn -0.360310 0.922492 0.138508
vn -0.360310 0.922492 0.138508
vn -0.360310 0.922492 0.138508
vn 0.785567 0.603535 0.136493
vn 0.785567 0.603535 0.136493
vn 0.785567 0.603535 0.136493
vn 0.785567 0.603535 0.136493
vn 0.209274 -0.343927 0.915379
vn 0.209274 -0.343927 0.915379
vn 0.209274 -0.343927 0.915379
vn 0.485663 -0.052681 0.872557
vn 0.485663 -0.052681 0.872557
vn 0.485663 -0.052681 0.872557
vn 0.041232 0.725783 0.686687
vn 0.041232 0.725783 0.686687
vn 0.041232 0.725783 0.686687
vn 0.041232 0.725783 0.686687
vn 0.854245 0.136245 0.501700
vn 0.854245 0.136245 0.501700
vn 0.854245 0.136245 0.501700
vn 0.854245 0.136245 0.501700
vn 0.392225 -0.177219 0.902637
vn 0.392225 -0.177219 0.902637
vn 0.392225 -0.177219 0.902637
vn 0.392225 -0.177219 0.902637
vn 0.119097 0.875098 0.469063
vn 0.119097 0.875098 0.469063
vn 0.119097 0.875098 0.469063
vn 0.119097 0.875098 0.469063
vn 0.954068 -0.000916 0.299588
vn 0.954068 -0.000916 0.299588
vn 0.954068 -0.000916 0.299588
vn 0.954068 -0.000916 0.299588
vn 0.807992 0.561907 0.177230
vn 0.807992 0.561907 0.177230
vn 0.807992 0.561907 0.177230
vn 0.807992 0.561907 0.177230
vn -0.001923 -0.953995 0.299817
vn -0.001923 -0.953995 0.299817
vn -0.001923 -0.953995 0.299817
vn -0.001923 -0.953995 0.299817
vn 0.685420 0.705381 0.180657
vn 0.685420 0.705381 0.180657
vn 0.685420 0.705381 0.180657
vn 0.685420 0.705381 0.180657
vn 0.928899 0.155681 0.336022
vn 0.928899 0.155681 0.336022
vn 0.928899 0.155681 0.336022
vn 0.928899 0.155681 0.336022
vn 0.050756 -0.777328 0.627045
vn 0.050756 -0.777328 0.627045
vn 0.050756 -0.777328 0.627045
vn 0.050756 -0.777328 0.627045
vn 0.528001 -0.778144 0.340158
vn 0.528001 -0.778144 0.340158
vn 0.528001 -0.778144 0.340158
vn 0.528001 -0.778144 0.340158
vn 0.413304 0.529603 0.740743
vn 0.413304 0.529603 0.740743
vn 0.413304 0.529603 0.740743
vn 0.754329 0.502906 0.421988
vn 0.754329 0.502906 0.421988
vn 0.754329 0.502906 0.421988
vn 0.754329 0.502906 0.421988
vn 0.969542 0.182133 0.163758
vn 0.969542 0.182133 0.163758
vn 0.969542 0.182133 0.163758
vn 0.969542 0.182133 0.163758
vn 0.119086 0.985860 0.117896
vn 0.119086 0.985860 0.117896
vn 0.119086 0.985860 0.117896
vn 0.119086 0.985860 0.117896
vn 0.101481 0.969272 0.224082
vn 0.101481 0.969272 0.224082
vn 0.101481 0.969272 0.224082
vn 0.101481 0.969272 0.224082
vn 0.271863 0.945430 0.179593
vn 0.271863 0.945430 0.179593
vn 0.271863 0.945430 0.179593
vn 0.271863 0.945430 0.179593
vn 0.858570 0.464840 0.216290
vn 0.858570 0.464840 0.216290
vn 0.858570 0.464840 0.216290
vn 0.858570 0.464840 0.216290
vn 0.248996 0.300851 0.920592
vn 0.248996 0.300851 0.920592
vn 0.248996 0.300851 0.920592
vn 0.248996 0.300851 0.920592
vn 0.447576 0.433750 0.782008
vn 0.447576 0.433750 0.782008
vn 0.447576 0.433750 0.782008
vn 0.447576 0.433750 0.782008
vn 0.958282 -0.207155 0.196930
vn 0.958282 -0.207155 0.196930
vn 0.958282 -0.207155 0.196930
vn 0.958282 -0.207155 0.196930
vn 0.745086 0.272750 0.608650
vn 0.745086 0.272750 0.608650
vn 0.745086 0.272750 0.608650
vn 0.745086 0.272750 0.608650
vn 0.966869 0.183125 0.177845
vn 0.966869 0.183125 0.177845
vn 0.966869 0.183125 0.177845
vn 0.966869 0.183125 0.177845
g BearHead_0621:B0525_BearHead_0424_M
usemtl initialShadingGroup
f 1/1/1 2/2/2 3/3/3 4/4/4
f 4/4/5 5/5/6 6/6/7 7/7/8
f 8/8/9 3/3/10 2/2/11 9/9/12
f 8/8/13 10/10/14 3/3/15
f 11/11/16 12/12/17 13/13/18 14/14/19
f 15/15/20 16/16/21 17/17/22 18/18/23
f 1/1/24 19/19/25 16/16/26 20/20/27
f 14/14/28 13/13/29 21/21/30 22/22/31
f 14/14/32 22/22/33 3/3/34 10/10/35
f 23/23/36 24/24/37 25/25/38 26/26/39
f 27/27/40 10/10/41 8/8/42 28/28/43
f 29/29/44 30/30/45 31/31/46 32/32/47
f 33/33/48 20/20/49 34/34/50 35/35/51
f 20/20/52 33/33/53 2/2/54 1/1/55
f 10/10/56 27/27/57 11/11/58 14/14/59
f 33/33/60 35/35/61 9/9/62 2/2/63
f 4/4/64 3/3/65 22/22/66 5/5/67
f 1/1/68 4/4/69 7/7/70
f 36/36/71 37/37/72 7/7/73 6/6/74
f 38/38/75 39/39/76 40/40/77
f 24/24/78 41/41/79 42/42/80 43/43/81
f 44/44/82 45/45/83 46/46/84 47/47/85
f 48/48/86 49/49/87 18/18/88 17/17/89
f 7/7/90 37/37/91 19/19/92 1/1/93
f 44/44/94 38/38/95 19/19/96
f 44/44/97 19/19/98 37/37/99 45/45/100
f 50/50/101 51/51/102 13/13/103 12/12/104
f 17/17/105 16/16/106 19/19/107 38/38/108
f 16/16/109 15/15/110 34/34/111 20/20/112
f 51/51/113 50/50/114 52/52/115 53/53/116
f 52/52/117 54/54/118 55/55/119 53/53/120
f 41/41/121 24/24/122 23/23/123 56/56/124
f 8/8/125 9/9/126 28/28/127
f 5/5/128 22/22/129 6/6/130
f 51/51/131 57/57/132 21/21/133 13/13/134
f 37/37/135 36/36/136 42/42/137 45/45/138
f 58/58/139 36/36/140 6/6/141 22/22/142
f 21/21/143 43/43/144 58/58/145 22/22/146
f 40/40/147 39/39/148 59/59/149 60/60/150
f 61/61/151 59/59/152 39/39/153 47/47/154
f 62/62/155 48/48/156 40/40/157 60/60/158
f 24/24/159 43/43/160 57/57/161 32/32/162
f 41/41/163 46/46/164 45/45/165 42/42/166
f 38/38/167 40/40/168 48/48/169 17/17/170
f 49/49/171 48/48/172 62/62/173 63/63/174
f 43/43/175 21/21/176 57/57/177
f 43/43/178 42/42/179 36/36/180 58/58/181
f 56/56/182 64/64/183 46/46/184 41/41/185
f 29/29/186 32/32/187 53/53/188 55/55/189
f 51/51/190 53/53/191 32/32/192 57/57/193
f 30/30/194 65/65/195 66/66/196 31/31/197
f 66/66/198 65/65/199 67/67/200 68/68/201
f 31/31/202 25/25/203 24/24/204 32/32/205
f 66/66/206 68/68/207 25/25/208 31/31/209
f 68/68/210 67/67/211 26/26/212 25/25/213
f 38/38/214 44/44/215 47/47/216 39/39/217
f 47/47/218 46/46/219 64/64/220 61/61/221
f 69/69/222 70/70/223 71/71/224 72/72/225
f 70/70/226 73/73/227 74/74/228 75/75/229
f 76/76/230 9/77/231 72/72/232 71/71/233
f 71/71/234 77/78/235 76/76/236
f 11/11/237 78/79/238 79/80/239 12/12/240
f 15/81/241 18/82/242 80/83/243 81/84/244
f 69/69/245 82/85/246 81/84/247 83/86/248
f 78/79/249 84/87/250 85/88/251 79/80/252
f 78/79/253 77/78/254 71/71/255 84/87/256
f 86/89/257 87/90/258 88/91/259 89/92/260
f 27/27/261 28/28/262 76/76/263 77/78/264
f 90/93/265 91/94/266 92/95/267 93/96/268
f 94/97/269 35/98/270 34/99/271 82/85/272
f 82/85/273 69/69/274 72/72/275 94/97/276
f 77/78/277 78/79/278 11/11/279 27/27/280
f 94/97/281 72/72/282 9/77/283 35/98/284
f 70/70/285 75/75/286 84/87/287 71/71/288
f 73/73/289 70/70/290 69/69/291
f 95/100/292 74/74/293 73/73/294 96/101/295
f 97/102/296 98/103/297 99/104/298
f 89/92/299 100/105/300 101/106/301 102/107/302
f 103/108/303 104/109/304 105/110/305 106/111/306
f 107/112/307 80/83/308 18/82/309 49/113/310
f 73/73/311 69/69/312 83/86/313 96/101/314
f 83/86/315 99/104/316 103/108/317
f 103/108/318 106/111/319 96/101/320 83/86/321
f 50/50/322 12/12/323 79/80/324 108/114/325
f 80/83/326 99/104/327 83/86/328 81/84/329
f 81/84/330 82/85/331 34/99/332 15/81/333
f 108/114/334 109/115/335 52/52/336 50/50/337
f 52/52/338 109/115/339 110/116/340 54/54/341
f 102/107/342 111/117/343 86/89/344 89/92/345
f 28/28/346 9/77/347 76/76/348
f 74/74/349 84/87/350 75/75/351
f 108/114/352 79/80/353 85/88/354 112/118/355
f 96/101/356 106/111/357 101/106/358 95/100/359
f 113/119/360 84/87/361 74/74/362 95/100/363
f 85/88/364 84/87/365 113/119/366 100/105/367
f 97/102/368 114/120/369 115/121/370 98/103/371
f 116/122/372 104/109/373 98/103/374 115/121/375
f 117/123/376 114/120/377 97/102/378 107/112/379
f 112/118/380 100/105/381 89/92/382 91/94/383
f 102/107/384 101/106/385 106/111/386 105/110/387
f 99/104/388 80/83/389 107/112/390 97/102/391
f 49/113/392 63/124/393 117/123/394 107/112/395
f 112/118/396 85/88/397 100/105/398
f 100/105/399 113/119/400 95/100/401 101/106/402
f 111/117/403 102/107/404 105/110/405 118/125/406
f 109/115/407 91/94/408 90/93/409 110/116/410
f 108/114/411 112/118/412 91/94/413 109/115/414
f 93/96/415 92/95/416 119/126/417 120/127/418
f 119/126/419 121/128/420 122/129/421 120/127/422
f 92/95/423 91/94/424 89/92/425 88/91/426
f 119/126/427 92/95/428 88/91/429 121/128/430
f 121/128/431 88/91/432 87/90/433 122/129/434
f 104/109/435 103/108/436 99/104/437 98/103/438
f 104/109/439 116/122/440 118/125/441 105/110/442
