# 3ds Max Wavefront OBJ Exporter v0.97b - (c)2007 guruware
# File Created: 20.03.2017 17:58:49

mtllib Diamnond.mtl

#
# object Diamond
#

v  17.0340 4.2251 4.9039
v  16.5510 4.3079 4.9039
v  15.6036 4.3079 4.7154
v  16.6158 0.8696 1.0096
v  15.1573 4.2234 4.5306
v  18.9106 4.2234 4.5306
v  18.4644 4.3079 4.7154
v  17.5170 4.3079 4.9039
v  17.4522 0.8696 1.0096
v  20.5016 4.2251 3.4676
v  20.1600 4.3079 3.8091
v  19.3569 4.3079 4.3458
v  21.5646 4.2234 1.8766
v  21.3798 4.3079 2.3229
v  20.8431 4.3079 3.1260
v  18.0436 0.8696 0.4182
v  21.9379 4.2251 -0.0000
v  21.9379 4.3079 0.4830
v  21.7494 4.3079 1.4304
v  21.5646 4.2234 -1.8767
v  21.7494 4.3079 -1.4304
v  21.9379 4.3079 -0.4830
v  18.0436 0.8696 -0.4182
v  20.5016 4.2251 -3.4676
v  20.8431 4.3079 -3.1261
v  21.3798 4.3079 -2.3229
v  18.9106 4.2234 -4.5307
v  19.3569 4.3079 -4.3458
v  20.1600 4.3079 -3.8091
v  17.4522 0.8696 -1.0096
v  17.0340 4.2251 -4.9039
v  17.5170 4.3079 -4.9039
v  18.4644 4.3079 -4.7155
v  15.1573 4.2234 -4.5307
v  15.6036 4.3079 -4.7155
v  16.5510 4.3079 -4.9039
v  16.6158 0.8696 -1.0096
v  13.5664 4.2251 -3.4676
v  13.9079 4.3079 -3.8091
v  14.7111 4.3079 -4.3458
v  12.5033 4.2234 -1.8767
v  12.6882 4.3079 -2.3229
v  13.2248 4.3079 -3.1261
v  16.0243 0.8696 -0.4182
v  12.1301 4.2251 -0.0000
v  12.1301 4.3079 -0.4830
v  12.3185 4.3079 -1.4304
v  14.7111 4.3079 4.3458
v  13.9079 4.3079 3.8091
v  13.5664 4.2251 3.4676
v  13.2248 4.3079 3.1260
v  12.6882 4.3079 2.3229
v  16.0243 0.8696 0.4182
v  12.5033 4.2234 1.8766
v  12.3185 4.3079 1.4304
v  12.1301 4.3079 0.4830
v  17.0340 -0.0003 -0.0000
v  20.8431 4.4579 -3.1261
v  21.3798 4.4579 -2.3229
v  21.9379 4.4579 0.4830
v  21.7494 4.4579 1.4304
v  21.3798 4.4579 2.3229
v  20.8431 4.4579 3.1260
v  20.1600 4.4579 3.8091
v  19.3569 4.4579 4.3458
v  18.4644 4.4579 4.7154
v  17.5170 4.4579 4.9039
v  16.5510 4.4579 4.9039
v  15.6036 4.4579 4.7154
v  14.7111 4.4579 4.3458
v  13.9079 4.4579 3.8091
v  13.2248 4.4579 3.1260
v  12.6882 4.4579 2.3229
v  12.3185 4.4579 1.4304
v  12.1301 4.4579 0.4830
v  12.1301 4.4579 -0.4830
v  12.3185 4.4579 -1.4304
v  12.6882 4.4579 -2.3229
v  13.2248 4.4579 -3.1261
v  13.9079 4.4579 -3.8091
v  14.7111 4.4579 -4.3458
v  15.6036 4.4579 -4.7155
v  16.5510 4.4579 -4.9039
v  17.5170 4.4579 -4.9039
v  18.4644 4.4579 -4.7155
v  19.3569 4.4579 -4.3458
v  20.1600 4.4579 -3.8091
v  21.9379 4.4579 -0.4830
v  21.7494 4.4579 -1.4304
v  17.0340 6.0252 -2.6500
v  15.1601 6.0252 -1.8738
v  14.3840 6.0252 -0.0000
v  18.9078 6.0252 -1.8738
v  17.0340 6.0252 2.6500
v  18.9078 6.0252 1.8738
v  15.1601 6.0252 1.8738
v  19.6840 6.0252 -0.0000
v  21.9379 4.5220 -0.0000
v  20.2525 5.6460 -1.3332
v  21.5646 4.5332 -1.8767
v  20.5016 4.5220 -3.4676
v  20.5016 4.5220 3.4676
v  20.2525 5.6460 1.3332
v  21.5646 4.5332 1.8766
v  17.0340 4.5220 4.9039
v  18.3672 5.6460 3.2186
v  18.9106 4.5332 4.5306
v  15.1573 4.5332 4.5306
v  15.7008 5.6460 3.2186
v  13.5664 4.5220 3.4676
v  12.5033 4.5332 1.8766
v  13.8154 5.6460 1.3332
v  12.1301 4.5220 -0.0000
v  12.5033 4.5332 -1.8767
v  13.8154 5.6460 -1.3332
v  13.5664 4.5220 -3.4676
v  17.0340 4.5220 -4.9039
v  15.7008 5.6460 -3.2186
v  15.1573 4.5332 -4.5307
v  18.3672 5.6460 -3.2186
v  18.9106 4.5332 -4.5307
# 121 vertices

vn -0.1294 -0.7443 0.6550
vn -0.1303 -0.7442 0.6549
vn 0.1303 -0.7442 0.6549
vn 0.1275 -0.7445 0.6552
vn 0.3717 -0.7443 0.5547
vn 0.3710 -0.7442 0.5552
vn 0.5552 -0.7442 0.3710
vn 0.5535 -0.7445 0.3730
vn 0.6550 -0.7443 0.1294
vn 0.6549 -0.7442 0.1303
vn 0.6549 -0.7442 -0.1303
vn 0.6552 -0.7445 -0.1275
vn 0.5547 -0.7443 -0.3717
vn 0.5552 -0.7442 -0.3710
vn 0.3710 -0.7442 -0.5552
vn 0.3730 -0.7445 -0.5535
vn 0.1294 -0.7443 -0.6550
vn 0.1303 -0.7442 -0.6549
vn -0.1303 -0.7442 -0.6549
vn -0.1275 -0.7445 -0.6552
vn -0.3717 -0.7443 -0.5547
vn -0.3710 -0.7442 -0.5552
vn -0.5552 -0.7442 -0.3710
vn -0.5535 -0.7445 -0.3730
vn -0.6550 -0.7443 -0.1294
vn -0.6549 -0.7442 -0.1303
vn -0.3710 -0.7442 0.5552
vn -0.3730 -0.7445 0.5535
vn -0.5547 -0.7443 0.3717
vn -0.5552 -0.7442 0.3710
vn -0.6549 -0.7442 0.1303
vn -0.6552 -0.7445 0.1275
vn 0.0000 -0.7576 0.6527
vn 0.4616 -0.7576 0.4616
vn 0.6527 -0.7576 -0.0000
vn 0.4616 -0.7576 -0.4616
vn 0.0000 -0.7576 -0.6527
vn -0.4616 -0.7576 -0.4616
vn -0.6527 -0.7576 -0.0000
vn -0.4616 -0.7576 0.4616
vn 0.8315 0.0000 -0.5555
vn 0.9807 0.0000 0.1951
vn 0.8315 0.0000 0.5555
vn 0.5555 0.0000 0.8315
vn 0.1951 0.0000 0.9807
vn -0.1951 0.0000 0.9807
vn -0.5555 0.0000 0.8315
vn -0.8315 0.0000 0.5555
vn -0.9807 0.0000 0.1951
vn -0.9807 0.0000 -0.1951
vn -0.8315 0.0000 -0.5555
vn -0.5555 0.0000 -0.8315
vn -0.1951 0.0000 -0.9807
vn 0.1951 0.0000 -0.9807
vn 0.5555 0.0000 -0.8315
vn 0.9807 0.0000 -0.1951
vn 0.0000 1.0000 -0.0000
vn 0.6106 0.7834 -0.1155
vn 0.6121 0.7813 -0.1218
vn 0.5190 0.7813 -0.3467
vn 0.5035 0.7872 -0.3557
vn 0.5134 0.7834 0.3499
vn 0.5190 0.7813 0.3467
vn 0.6121 0.7813 0.1218
vn 0.6076 0.7872 0.1044
vn 0.1155 0.7834 0.6106
vn 0.1218 0.7813 0.6121
vn 0.3467 0.7813 0.5190
vn 0.3557 0.7872 0.5035
vn -0.3467 0.7813 0.5190
vn -0.3557 0.7872 0.5035
vn -0.1218 0.7813 0.6121
vn -0.1044 0.7872 0.6076
vn -0.6121 0.7813 0.1218
vn -0.6076 0.7872 0.1044
vn -0.5190 0.7813 0.3467
vn -0.5035 0.7872 0.3557
vn -0.5190 0.7813 -0.3467
vn -0.5035 0.7872 -0.3557
vn -0.6121 0.7813 -0.1218
vn -0.6076 0.7872 -0.1044
vn -0.1155 0.7834 -0.6106
vn -0.1218 0.7813 -0.6121
vn -0.3467 0.7813 -0.5190
vn -0.3557 0.7872 -0.5035
vn 0.3500 0.7834 -0.5134
vn 0.3467 0.7813 -0.5190
vn 0.1218 0.7813 -0.6121
vn 0.1044 0.7872 -0.6076
vn 0.3176 0.9390 -0.1316
vn 0.3176 0.9390 0.1316
vn 0.5547 0.8320 -0.0000
vn 0.1316 0.9390 0.3176
vn 0.3923 0.8320 0.3923
vn -0.1316 0.9390 0.3176
vn 0.0000 0.8320 0.5547
vn -0.3176 0.9390 0.1316
vn -0.3923 0.8320 0.3923
vn -0.3176 0.9390 -0.1316
vn -0.5547 0.8320 -0.0000
vn -0.1316 0.9390 -0.3176
vn -0.3923 0.8320 -0.3923
vn 0.1316 0.9390 -0.3176
vn 0.3923 0.8320 -0.3923
vn 0.0000 0.8320 -0.5547
vn -0.3827 0.0000 -0.9239
vn 1.0000 0.0000 -0.0000
vn 0.0000 0.0000 1.0000
vn -0.7070 0.0000 0.7070
vn 0.9239 0.0000 0.3827
vn 0.9239 0.0000 -0.3827
vn 0.3827 0.0000 0.9239
vn -0.3827 0.0000 0.9239
vn -0.9239 0.0000 -0.3827
vn -0.7070 0.0000 -0.7070
vn 0.7070 0.0000 -0.7070
vn 0.7070 0.0000 0.7070
vn -0.9239 0.0000 0.3827
vn -1.0000 0.0000 -0.0000
vn 0.3827 0.0000 -0.9239
vn 0.0000 0.0000 -1.0000
# 121 vertex normals

vt 0.3156 0.6181 0.0000
vt 0.2854 0.6167 0.0000
vt 0.2317 0.6057 0.0000
vt 0.2991 0.3584 0.0000
vt 0.2021 0.5906 0.0000
vt 0.4295 0.5910 0.0000
vt 0.4020 0.6039 0.0000
vt 0.3486 0.6168 0.0000
vt 0.3339 0.3582 0.0000
vt 0.5292 0.5302 0.0000
vt 0.5069 0.5506 0.0000
vt 0.4611 0.5808 0.0000
vt 0.5906 0.4305 0.0000
vt 0.5803 0.4591 0.0000
vt 0.5516 0.5060 0.0000
vt 0.3584 0.3335 0.0000
vt 0.6181 0.3170 0.0000
vt 0.6167 0.3472 0.0000
vt 0.6057 0.4010 0.0000
vt 0.5910 0.2031 0.0000
vt 0.6040 0.2307 0.0000
vt 0.6169 0.2841 0.0000
vt 0.3582 0.2987 0.0000
vt 0.5302 0.1034 0.0000
vt 0.5506 0.1257 0.0000
vt 0.5808 0.1716 0.0000
vt 0.4305 0.0421 0.0000
vt 0.4592 0.0524 0.0000
vt 0.5060 0.0810 0.0000
vt 0.3335 0.2743 0.0000
vt 0.3170 0.0145 0.0000
vt 0.3472 0.0159 0.0000
vt 0.4010 0.0269 0.0000
vt 0.2031 0.0417 0.0000
vt 0.2307 0.0287 0.0000
vt 0.2841 0.0158 0.0000
vt 0.2987 0.2744 0.0000
vt 0.1034 0.1024 0.0000
vt 0.1257 0.0820 0.0000
vt 0.1716 0.0518 0.0000
vt 0.0421 0.2021 0.0000
vt 0.0524 0.1735 0.0000
vt 0.0810 0.1266 0.0000
vt 0.2743 0.2991 0.0000
vt 0.0145 0.3156 0.0000
vt 0.0159 0.2854 0.0000
vt 0.0269 0.2317 0.0000
vt 0.1735 0.5803 0.0000
vt 0.1266 0.5516 0.0000
vt 0.1024 0.5292 0.0000
vt 0.0821 0.5069 0.0000
vt 0.0518 0.4611 0.0000
vt 0.2744 0.3339 0.0000
vt 0.0417 0.4295 0.0000
vt 0.0287 0.4020 0.0000
vt 0.0158 0.3485 0.0000
vt 0.3163 0.3163 0.0000
vt 0.5562 0.1217 0.0000
vt 0.5868 0.1691 0.0000
vt 0.6236 0.3483 0.0000
vt 0.6116 0.4035 0.0000
vt 0.5862 0.4625 0.0000
vt 0.5566 0.5105 0.0000
vt 0.5110 0.5562 0.0000
vt 0.4635 0.5868 0.0000
vt 0.4038 0.6105 0.0000
vt 0.3489 0.6236 0.0000
vt 0.2843 0.6236 0.0000
vt 0.2291 0.6116 0.0000
vt 0.1702 0.5862 0.0000
vt 0.1221 0.5566 0.0000
vt 0.0764 0.5110 0.0000
vt 0.0458 0.4635 0.0000
vt 0.0221 0.4038 0.0000
vt 0.0091 0.3489 0.0000
vt 0.0090 0.2843 0.0000
vt 0.0210 0.2291 0.0000
vt 0.0464 0.1701 0.0000
vt 0.0760 0.1221 0.0000
vt 0.1217 0.0764 0.0000
vt 0.1691 0.0458 0.0000
vt 0.2288 0.0221 0.0000
vt 0.2837 0.0091 0.0000
vt 0.3483 0.0090 0.0000
vt 0.4035 0.0210 0.0000
vt 0.4625 0.0464 0.0000
vt 0.5105 0.0760 0.0000
vt 0.6236 0.2837 0.0000
vt 0.6105 0.2288 0.0000
vt 0.7285 0.6003 0.0000
vt 0.8224 0.6385 0.0000
vt 0.8628 0.7307 0.0000
vt 0.6349 0.6381 0.0000
vt 0.7288 0.8615 0.0000
vt 0.6352 0.8240 0.0000
vt 0.8226 0.8229 0.0000
vt 0.5969 0.7311 0.0000
vt 0.4612 0.7313 0.0000
vt 0.4599 0.7046 0.0000
vt 0.4688 0.6544 0.0000
vt 0.5648 0.6635 0.0000
vt 0.4812 0.6285 0.0000
vt 0.4901 0.6033 0.0000
vt 0.5182 0.5611 0.0000
vt 0.5397 0.5422 0.0000
vt 0.5401 0.9201 0.0000
vt 0.5202 0.9022 0.0000
vt 0.4909 0.8605 0.0000
vt 0.5650 0.7988 0.0000
vt 0.4813 0.8335 0.0000
vt 0.4696 0.8094 0.0000
vt 0.4595 0.7598 0.0000
vt 0.7294 0.9971 0.0000
vt 0.7028 0.9987 0.0000
vt 0.6527 0.9900 0.0000
vt 0.6613 0.8939 0.0000
vt 0.6268 0.9778 0.0000
vt 0.6015 0.9691 0.0000
vt 0.5592 0.9413 0.0000
vt 0.8312 0.9768 0.0000
vt 0.7968 0.8932 0.0000
vt 0.8988 0.9408 0.0000
vt 0.8564 0.9684 0.0000
vt 0.9180 0.9197 0.0000
vt 0.8073 0.9886 0.0000
vt 0.7577 0.9987 0.0000
vt 0.9768 0.8333 0.0000
vt 0.8935 0.7983 0.0000
vt 0.9991 0.7595 0.0000
vt 0.9887 0.8093 0.0000
vt 0.9975 0.7307 0.0000
vt 0.9679 0.8587 0.0000
vt 0.9397 0.9009 0.0000
vt 0.9766 0.6281 0.0000
vt 0.8934 0.6631 0.0000
vt 0.9395 0.5606 0.0000
vt 0.9678 0.6028 0.0000
vt 0.9178 0.5417 0.0000
vt 0.9886 0.6521 0.0000
vt 0.9990 0.7019 0.0000
vt 0.7288 0.4646 0.0000
vt 0.7554 0.4633 0.0000
vt 0.8054 0.4722 0.0000
vt 0.7965 0.5683 0.0000
vt 0.8311 0.4844 0.0000
vt 0.8563 0.4930 0.0000
vt 0.8986 0.5207 0.0000
vt 0.5577 0.5225 0.0000
vt 0.5996 0.4935 0.0000
vt 0.6608 0.5681 0.0000
vt 0.6266 0.4841 0.0000
vt 0.6507 0.4726 0.0000
vt 0.7004 0.4627 0.0000
vt 0.1971 0.0285 0.0000
vt 0.6310 0.3162 0.0000
vt 0.3164 0.6310 0.0000
vt 0.0939 0.5389 0.0000
vt 0.6041 0.4355 0.0000
vt 0.6041 0.1971 0.0000
vt 0.4356 0.6041 0.0000
vt 0.1972 0.6041 0.0000
vt 0.0285 0.1972 0.0000
vt 0.0937 0.0939 0.0000
vt 0.5388 0.0937 0.0000
vt 0.5389 0.5388 0.0000
vt 0.0285 0.4356 0.0000
vt 0.0016 0.3164 0.0000
vt 0.4355 0.0285 0.0000
vt 0.3162 0.0016 0.0000
# 169 texture coords

g Diamond
usemtl Material__25
s off
f 1/1/1 2/2/1 3/3/1 4/4/1 
f 4/4/2 3/3/2 5/5/2 
f 6/6/3 7/7/3 8/8/3 9/9/3 
f 9/9/4 8/8/4 1/1/4 
f 10/10/5 11/11/5 12/12/5 9/9/5 
f 9/9/6 12/12/6 6/6/6 
f 13/13/7 14/14/7 15/15/7 16/16/7 
f 16/16/8 15/15/8 10/10/8 
f 17/17/9 18/18/9 19/19/9 16/16/9 
f 16/16/10 19/19/10 13/13/10 
f 20/20/11 21/21/11 22/22/11 23/23/11 
f 23/23/12 22/22/12 17/17/12 
f 24/24/13 25/25/13 26/26/13 23/23/13 
f 23/23/14 26/26/14 20/20/14 
f 27/27/15 28/28/15 29/29/15 30/30/15 
f 30/30/16 29/29/16 24/24/16 
f 31/31/17 32/32/17 33/33/17 30/30/17 
f 30/30/18 33/33/18 27/27/18 
f 34/34/19 35/35/19 36/36/19 37/37/19 
f 37/37/20 36/36/20 31/31/20 
f 38/38/21 39/39/21 40/40/21 37/37/21 
f 37/37/22 40/40/22 34/34/22 
f 41/41/23 42/42/23 43/43/23 44/44/23 
f 44/44/24 43/43/24 38/38/24 
f 45/45/25 46/46/25 47/47/25 44/44/25 
f 44/44/26 47/47/26 41/41/26 
f 5/5/27 48/48/27 49/49/27 4/4/27 
f 4/4/28 49/49/28 50/50/28 
f 50/50/29 51/51/29 52/52/29 53/53/29 
f 53/53/30 52/52/30 54/54/30 
f 54/54/31 55/55/31 56/56/31 53/53/31 
f 53/53/32 56/56/32 45/45/32 
f 9/9/33 1/1/33 4/4/33 57/57/33 
f 16/16/34 10/10/34 9/9/34 57/57/34 
f 23/23/35 17/17/35 16/16/35 57/57/35 
f 30/30/36 24/24/36 23/23/36 57/57/36 
f 37/37/37 31/31/37 30/30/37 57/57/37 
f 44/44/38 38/38/38 37/37/38 57/57/38 
f 53/53/39 45/45/39 44/44/39 57/57/39 
f 4/4/40 50/50/40 53/53/40 57/57/40 
f 26/26/41 25/25/41 58/58/41 59/59/41 
f 19/19/42 18/18/42 60/60/42 61/61/42 
f 62/62/43 63/63/43 15/15/43 14/14/43 
f 12/12/44 11/11/44 64/64/44 65/65/44 
f 66/66/45 67/67/45 8/8/45 7/7/45 
f 2/2/46 68/68/46 69/69/46 3/3/46 
f 49/49/47 48/48/47 70/70/47 71/71/47 
f 52/52/48 51/51/48 72/72/48 73/73/48 
f 56/56/49 55/55/49 74/74/49 75/75/49 
f 47/47/50 46/46/50 76/76/50 77/77/50 
f 43/43/51 42/42/51 78/78/51 79/79/51 
f 40/40/52 39/39/52 80/80/52 81/81/52 
f 36/36/53 35/35/53 82/82/53 83/83/53 
f 32/32/54 84/84/54 85/85/54 33/33/54 
f 29/29/55 28/28/55 86/86/55 87/87/55 
f 88/88/56 22/22/56 21/21/56 89/89/56 
f 90/90/57 91/91/57 92/92/57 93/93/57 
f 94/94/57 95/95/57 92/92/57 96/96/57 
f 95/95/57 97/97/57 93/93/57 92/92/57 
f 98/98/58 88/99/58 89/100/58 99/101/58 
f 99/101/59 89/100/59 100/102/59 
f 100/102/60 59/103/60 58/104/60 99/101/60 
f 99/101/61 58/104/61 101/105/61 
f 102/106/62 63/107/62 62/108/62 103/109/62 
f 103/109/63 62/108/63 104/110/63 
f 104/110/64 61/111/64 60/112/64 103/109/64 
f 103/109/65 60/112/65 98/98/65 
f 105/113/66 67/114/66 66/115/66 106/116/66 
f 106/116/67 66/115/67 107/117/67 
f 107/117/68 65/118/68 64/119/68 106/116/68 
f 106/116/69 64/119/69 102/106/69 
f 108/120/70 109/121/70 71/122/70 70/123/70 
f 109/121/71 110/124/71 71/122/71 
f 108/120/72 69/125/72 68/126/72 109/121/72 
f 109/121/73 68/126/73 105/113/73 
f 111/127/74 112/128/74 75/129/74 74/130/74 
f 112/128/75 113/131/75 75/129/75 
f 111/127/76 73/132/76 72/133/76 112/128/76 
f 112/128/77 72/133/77 110/124/77 
f 114/134/78 115/135/78 79/136/78 78/137/78 
f 115/135/79 116/138/79 79/136/79 
f 114/134/80 77/139/80 76/140/80 115/135/80 
f 115/135/81 76/140/81 113/131/81 
f 117/141/82 83/142/82 82/143/82 118/144/82 
f 118/144/83 82/143/83 119/145/83 
f 119/145/84 81/146/84 80/147/84 118/144/84 
f 118/144/85 80/147/85 116/138/85 
f 101/105/86 87/148/86 86/149/86 120/150/86 
f 120/150/87 86/149/87 121/151/87 
f 121/151/88 85/152/88 84/153/88 120/150/88 
f 120/150/89 84/153/89 117/141/89 
f 97/97/90 99/101/90 93/93/90 
f 95/95/91 103/109/91 97/97/91 
f 99/101/92 97/97/92 103/109/92 98/98/92 
f 94/94/93 106/116/93 95/95/93 
f 103/109/94 95/95/94 106/116/94 102/106/94 
f 96/96/95 109/121/95 94/94/95 
f 106/116/96 94/94/96 109/121/96 105/113/96 
f 92/92/97 112/128/97 96/96/97 
f 109/121/98 96/96/98 112/128/98 110/124/98 
f 91/91/99 115/135/99 92/92/99 
f 112/128/100 92/92/100 115/135/100 113/131/100 
f 90/90/101 118/144/101 91/91/101 
f 115/135/102 91/91/102 118/144/102 116/138/102 
f 93/93/103 120/150/103 90/90/103 
f 120/150/104 93/93/104 99/101/104 101/105/104 
f 118/144/105 90/90/105 120/150/105 117/141/105 
f 35/35/106 34/34/106 119/154/106 82/82/106 
f 119/154/106 34/34/106 40/40/106 81/81/106 
f 18/18/107 17/17/107 98/155/107 60/60/107 
f 98/155/107 17/17/107 22/22/107 88/88/107 
f 105/156/108 1/1/108 8/8/108 67/67/108 
f 2/2/108 1/1/108 105/156/108 68/68/108 
f 110/157/109 50/50/109 49/49/109 71/71/109 
f 110/157/109 72/72/109 51/51/109 50/50/109 
f 19/19/110 61/61/110 104/158/110 13/13/110 
f 14/14/110 13/13/110 104/158/110 62/62/110 
f 26/26/111 59/59/111 100/159/111 20/20/111 
f 21/21/111 20/20/111 100/159/111 89/89/111 
f 12/12/112 65/65/112 107/160/112 6/6/112 
f 7/7/112 6/6/112 107/160/112 66/66/112 
f 3/3/113 69/69/113 108/161/113 5/5/113 
f 48/48/113 5/5/113 108/161/113 70/70/113 
f 47/47/114 77/77/114 114/162/114 41/41/114 
f 42/42/114 41/41/114 114/162/114 78/78/114 
f 39/39/115 38/38/115 116/163/115 80/80/115 
f 43/43/115 79/79/115 116/163/115 38/38/115 
f 25/25/116 24/24/116 101/164/116 58/58/116 
f 29/29/116 87/87/116 101/164/116 24/24/116 
f 11/11/117 10/10/117 102/165/117 64/64/117 
f 15/15/117 63/63/117 102/165/117 10/10/117 
f 52/52/118 73/73/118 111/166/118 54/54/118 
f 55/55/118 54/54/118 111/166/118 74/74/118 
f 46/46/119 45/45/119 113/167/119 76/76/119 
f 113/167/119 45/45/119 56/56/119 75/75/119 
f 28/28/120 27/27/120 121/168/120 86/86/120 
f 121/168/120 27/27/120 33/33/120 85/85/120 
f 32/32/121 31/31/121 117/169/121 84/84/121 
f 117/169/121 31/31/121 36/36/121 83/83/121 
# 99 polygons - 40 triangles

