# author: headus 3D tools
#  using: ply2obj v1.9
#   from: uvlayout v2.10.00
# 8 vertices
v -5.000000 0.000000 5.000000
v -5.000000 0.000000 -5.000000
v 5.000000 0.000000 -5.000000
v 5.000000 0.000000 5.000000
v -5.000000 10.000000 5.000000
v 5.000000 10.000000 5.000000
v 5.000000 10.000000 -5.000000
v -5.000000 10.000000 -5.000000
# 6 normals
vn 0.000000 -1.000000 0.000000
vn 0.000000 1.000000 0.000000
vn 0.000000 0.000000 1.000000
vn 1.000000 0.000000 0.000000
vn 0.000000 0.000000 -1.000000
vn -1.000000 0.000000 0.000000
# 14 uv coords
vt 0.254414 0.502262
vt 0.006588 0.506913
vt 0.001947 0.259084
vt 0.249779 0.254456
vt 0.245079 0.006651
vt 0.492907 0.001947
vt 0.497613 0.249798
vt 0.745478 0.245206
vt 0.750033 0.493036
vt 0.502237 0.497649
vt 0.506808 0.745502
vt 0.258978 0.750069
vt 0.997840 0.488531
vt 0.993335 0.240700
# 6 polygons
usemtl wire_088144225
s 2
g Box001
f 1/1/1 2/4/1 3/7/1 4/10/1
s 4
f 5/13/2 6/9/2 7/8/2 8/14/2
s 8
f 1/1/3 4/10/3 6/11/3 5/12/3
s 16
f 4/10/4 3/7/4 7/8/4 6/9/4
s 32
f 3/7/5 2/4/5 8/5/5 7/6/5
s 64
f 2/4/6 1/1/6 5/2/6 8/3/6
# h3dt: 8 14 6 6
