# 3ds Max Wavefront OBJ Exporter v0.97b - (c)2007 guruware
# File Created: 26.10.2018 18:53:19

mtllib cylinder.mtl

#
# object cylinder001
#

v  -0.8660 0.0530 0.5000
v  -1.0000 0.0530 -0.0000
v  0.0000 0.0530 -0.0000
v  -1.0000 4.0530 -0.0000
v  -0.8660 4.0530 0.5000
v  0.0000 4.0530 -0.0000
v  -0.5000 0.0530 0.8660
v  -0.5000 4.0530 0.8660
v  0.0000 0.0530 1.0000
v  0.0000 4.0530 1.0000
v  0.5000 0.0530 0.8660
v  0.5000 4.0530 0.8660
v  0.8660 0.0530 0.5000
v  0.8660 4.0530 0.5000
v  1.0000 0.0530 -0.0000
v  1.0000 4.0530 -0.0000
v  0.8660 0.0530 -0.5000
v  0.8660 4.0530 -0.5000
v  0.5000 0.0530 -0.8660
v  0.5000 4.0530 -0.8660
v  0.0000 0.0530 -1.0000
v  0.0000 4.0530 -1.0000
v  -0.5000 0.0530 -0.8660
v  -0.5000 4.0530 -0.8660
v  -0.8660 0.0530 -0.5000
v  -0.8660 4.0530 -0.5000
# 26 vertices

vn 0.0000 -1.0000 -0.0000
vn -1.0000 0.0000 -0.0000
vn -0.8658 0.0000 0.5000
vn 0.0000 1.0000 -0.0000
vn -0.5000 0.0000 0.8658
vn 0.0000 0.0000 1.0000
vn 0.5000 0.0000 0.8658
vn 0.8658 0.0000 0.5000
vn 1.0000 0.0000 -0.0000
vn 0.8658 0.0000 -0.5000
vn 0.5000 0.0000 -0.8658
vn 0.0000 0.0000 -1.0000
vn -0.5000 0.0000 -0.8658
vn -0.8658 0.0000 -0.5000
# 14 vertex normals

vt 0.6477 0.4029 0.0000
vt 0.6245 0.4893 0.0000
vt 0.7974 0.4893 0.0000
vt 0.2341 0.8656 0.0000
vt 0.2267 0.1468 0.0000
vt 0.2653 0.1532 0.0000
vt 0.2732 0.8587 0.0000
vt 0.3555 1.0051 0.0000
vt 0.7110 0.3396 0.0000
vt 0.3051 0.1580 0.0000
vt 0.3132 0.8537 0.0000
vt 0.7974 0.3164 0.0000
vt 0.3470 0.1596 0.0000
vt 0.3553 0.8518 0.0000
vt 0.8838 0.3396 0.0000
vt 0.3891 0.1576 0.0000
vt 0.3972 0.8534 0.0000
vt 0.9471 0.4029 0.0000
vt 0.4291 0.1526 0.0000
vt 0.4370 0.8581 0.0000
vt 0.9702 0.4893 0.0000
vt 0.4682 0.1457 0.0000
vt 0.4756 0.8645 0.0000
vt 0.9471 0.5757 0.0000
vt 0.5072 0.1368 0.0000
vt 0.5143 0.8729 0.0000
vt 0.8838 0.6390 0.0000
vt 0.5482 0.1247 0.0000
vt 0.5551 0.8845 0.0000
vt 0.7974 0.6621 0.0000
vt 0.6005 0.1087 0.0000
vt 0.6074 0.8998 0.0000
vt 0.7110 0.6390 0.0000
vt 0.1017 0.9026 0.0000
vt 0.0948 0.1115 0.0000
vt 0.1471 0.1268 0.0000
vt 0.1541 0.8866 0.0000
vt 0.6477 0.5757 0.0000
vt 0.1880 0.1384 0.0000
vt 0.1951 0.8745 0.0000
# 40 texture coords

g cylinder001
usemtl scene_material
s 1
f 1/1/1 2/2/1 3/3/1 
f 4/4/2 2/5/2 1/6/3 5/7/3 
f 4/4/4 5/7/4 6/8/4 
f 7/9/1 1/1/1 3/3/1 
f 5/7/3 1/6/3 7/10/5 8/11/5 
f 5/7/4 8/11/4 6/8/4 
f 9/12/1 7/9/1 3/3/1 
f 8/11/5 7/10/5 9/13/6 10/14/6 
f 8/11/4 10/14/4 6/8/4 
f 11/15/1 9/12/1 3/3/1 
f 10/14/6 9/13/6 11/16/7 12/17/7 
f 10/14/4 12/17/4 6/8/4 
f 13/18/1 11/15/1 3/3/1 
f 12/17/7 11/16/7 13/19/8 14/20/8 
f 12/17/4 14/20/4 6/8/4 
f 15/21/1 13/18/1 3/3/1 
f 14/20/8 13/19/8 15/22/9 16/23/9 
f 14/20/4 16/23/4 6/8/4 
f 17/24/1 15/21/1 3/3/1 
f 16/23/9 15/22/9 17/25/10 18/26/10 
f 16/23/4 18/26/4 6/8/4 
f 19/27/1 17/24/1 3/3/1 
f 18/26/10 17/25/10 19/28/11 20/29/11 
f 18/26/4 20/29/4 6/8/4 
f 21/30/1 19/27/1 3/3/1 
f 20/29/11 19/28/11 21/31/12 22/32/12 
f 20/29/4 22/32/4 6/8/4 
f 23/33/1 21/30/1 3/3/1 
f 22/34/12 21/35/12 23/36/13 24/37/13 
f 22/34/4 24/37/4 6/8/4 
f 25/38/1 23/33/1 3/3/1 
f 24/37/13 23/36/13 25/39/14 26/40/14 
f 24/37/4 26/40/4 6/8/4 
f 2/2/1 25/38/1 3/3/1 
f 26/40/14 25/39/14 2/5/2 4/4/2 
f 26/40/4 4/4/4 6/8/4 
# 12 polygons - 24 triangles

