# author: headus 3D tools
#  using: ply2obj v1.9
#   from: uvlayout v2.10.00
# 6 vertices
v -0.015000 10.005000 1.311000
v -5.015000 0.005000 6.311000
v 4.985000 0.005000 6.311000
v 4.985000 0.005000 -3.689000
v -5.015000 0.005000 -3.689000
v -0.015000 0.005000 1.311000
# 5 normals
vn 0.000000 0.447171 0.894372
vn 0.894372 0.447171 0.000000
vn 0.000000 0.447171 -0.894372
vn -0.894372 0.447171 0.000000
vn 0.000000 -1.000000 0.000000
# 10 uv coords
vt 0.386893 0.386893
vt 0.789810 0.788953
vt 0.386892 0.001714
vt 0.772072 0.386892
vt 0.001714 0.386893
vt 0.386893 0.772072
vt 0.581834 0.996929
vt 0.581834 0.580977
vt 0.997785 0.580977
vt 0.997785 0.996929
# 8 polygons
usemtl wire_088144225
s 4
g Pyramid001
f 1/1/1 2/4/1 3/6/1
s 2
f 1/1/2 3/6/2 4/5/2
s 16
f 1/1/3 4/5/3 5/3/3
s 32
f 1/1/4 5/3/4 2/4/4
s 8
f 2/7/5 6/2/5 3/10/5
f 3/10/5 6/2/5 4/9/5
f 4/9/5 6/2/5 5/8/5
f 5/8/5 6/2/5 2/7/5
# h3dt: 6 10 5 8
