# 3ds Max Wavefront OBJ Exporter v0.97b - (c)2007 guruware
# File Created: 17.02.2017 11:11:48

mtllib bearhead.mtl

#
# object BH1219_001
#

v  1.9120 47.7990 -17.0150
v  1.5893 48.4794 -16.3819
v  0.0604 47.9102 -16.0475
v  0.0604 46.3680 -16.9053
v  -3.6215 52.3087 -18.6119
v  -3.7747 51.9209 -18.1868
v  -3.0219 53.0665 -18.0330
v  -3.0379 53.1617 -18.6119
v  4.9069 49.7652 -18.6119
v  3.9434 51.1202 -17.6878
v  3.6855 50.0494 -17.3112
v  4.4224 48.4993 -18.6119
v  1.1799 50.5690 -13.6625
v  1.0042 49.8174 -13.9607
v  1.6055 50.3952 -15.6635
v  1.4888 51.7675 -15.6237
v  1.0263 52.2556 -15.5121
v  1.3255 51.4431 -14.0578
v  2.2137 46.6055 -18.6119
v  1.5711 52.7835 -15.9100
v  2.3899 52.7236 -16.0900
v  0.0604 49.8174 -13.6320
v  0.0604 49.3506 -15.3674
v  1.0155 49.5182 -15.4387
v  0.0604 50.6307 -13.4830
v  0.6542 51.2162 -13.4224
v  0.0604 50.8652 -13.4830
v  2.2340 53.2218 -15.7736
v  2.2915 54.3667 -17.0252
v  0.9679 53.4033 -15.4302
v  0.6444 52.5578 -15.3176
v  3.1079 52.9411 -17.0262
v  2.6352 50.4256 -16.5962
v  0.0604 54.8311 -17.4880
v  1.2629 54.8471 -18.6119
v  0.0604 51.1014 -13.3164
v  -1.0590 50.5690 -13.6625
v  -0.8833 49.8174 -13.9607
v  4.2016 53.8273 -17.2253
v  3.3925 54.6454 -17.1464
v  0.0604 55.0245 -18.6119
v  0.0604 53.8686 -15.8837
v  0.0604 52.8104 -15.3063
v  4.2016 53.8273 -17.6016
v  2.4911 54.4919 -17.8113
v  3.3925 54.6454 -17.5227
v  1.2073 49.3561 -15.9376
v  3.7894 53.2563 -17.2813
v  3.7894 53.2563 -17.6577
v  2.3405 54.5572 -18.6119
v  3.8955 51.9209 -18.1868
v  5.0201 50.5485 -18.6119
v  3.7424 52.3087 -18.6119
v  3.1428 53.0665 -18.0330
v  0.0604 49.0482 -15.7138
v  -0.8946 49.5182 -15.4387
v  -1.0865 49.3561 -15.9376
v  -2.9871 52.9411 -17.0262
v  -2.2690 52.7236 -16.0900
v  -2.1131 53.2218 -15.7736
v  -2.1707 54.3667 -17.0252
v  -1.4502 52.7835 -15.9100
v  -0.5235 52.5578 -15.3176
v  3.1446 53.1267 -18.6119
v  0.7139 51.3852 -13.2008
v  0.0604 51.3734 -13.0597
v  0.0604 54.6087 -16.8291
v  -0.6522 52.0249 -13.0585
v  0.0604 52.1204 -12.8774
v  -0.5333 51.2162 -13.4224
v  -0.5930 51.3852 -13.2008
v  -1.2046 51.4431 -14.0578
v  -0.9054 52.2556 -15.5121
v  0.7730 52.0249 -13.0585
v  0.0604 45.6336 -18.6119
v  -2.0928 46.6055 -18.6119
v  -1.7911 47.7990 -17.0150
v  -4.0807 53.8273 -17.2253
v  -3.6686 53.2563 -17.2813
v  -1.4684 48.4794 -16.3819
v  -4.7860 49.7652 -18.6119
v  -4.3015 48.4993 -18.6119
v  -3.5647 50.0494 -17.3112
v  -3.8225 51.1202 -17.6878
v  -1.4846 50.3952 -15.6635
v  -1.3679 51.7675 -15.6237
v  -0.8470 53.4033 -15.4302
v  -2.5144 50.4256 -16.5962
v  -3.2716 54.6454 -17.1464
v  -1.1420 54.8471 -18.6119
v  -3.2716 54.6454 -17.5227
v  -2.3702 54.4919 -17.8113
v  -4.0807 53.8273 -17.6016
v  -3.6686 53.2563 -17.6577
v  -2.2196 54.5572 -18.6119
v  -4.8993 50.5485 -18.6119
v  -3.6215 52.3087 -19.0228
v  -3.0379 53.1617 -19.0228
v  4.9069 49.7652 -19.0228
v  4.4224 48.4993 -19.0228
v  2.2137 46.6055 -19.0228
v  0.0604 55.0245 -19.0228
v  1.2629 54.8471 -19.0228
v  2.3405 54.5572 -19.0228
v  3.7424 52.3087 -19.0228
v  5.0201 50.5485 -19.0228
v  3.1446 53.1267 -19.0228
v  0.0604 45.6336 -19.0228
v  -2.0928 46.6055 -19.0228
v  -4.3015 48.4993 -19.0228
v  -4.7860 49.7652 -19.0228
v  -1.1420 54.8471 -19.0228
v  -2.2196 54.5572 -19.0228
v  -4.8993 50.5485 -19.0228
v  0.0597 51.1789 -19.0228
# 115 vertices

vn 0.3849 -0.4749 0.7914
vn -0.8357 0.5228 0.1683
vn 0.6329 -0.1218 0.7646
vn 0.9039 -0.3226 0.2808
vn 0.6952 0.6789 0.2363
vn 0.5650 -0.4530 0.6896
vn 0.2271 0.2450 0.9425
vn 0.1473 -0.9408 0.3053
vn 0.1667 0.3832 0.9085
vn 0.5415 -0.6091 0.5794
vn 0.2927 0.5018 0.8140
vn 0.8050 -0.0060 0.5932
vn 0.1626 0.9686 0.1879
vn 0.7947 -0.5937 0.1263
vn 0.9811 0.0345 0.1904
vn 0.2493 -0.5582 0.7914
vn -0.2206 -0.2908 0.9310
vn 0.0011 0.0011 1.0000
vn 0.1439 0.9753 0.1678
vn -0.1047 0.3545 0.9292
vn 0.3401 0.3365 -0.8781
vn 0.6053 -0.4676 0.6441
vn 0.5091 0.0713 0.8577
vn 0.8108 -0.5853 -0.0000
vn 0.2010 0.9719 0.1228
vn 0.7695 0.5586 0.3094
vn 0.2817 -0.0208 -0.9593
vn 0.7295 0.0550 0.6818
vn -0.2745 -0.6437 0.7143
vn -0.7490 0.3909 0.5350
vn -0.3461 -0.4575 0.8191
vn 0.7110 0.7032 -0.0000
vn 0.4483 -0.8922 -0.0543
vn 0.8969 0.4417 -0.0212
vn 0.4290 -0.0388 0.9024
vn -0.2233 0.9725 0.0664
vn 0.8983 0.3758 0.2275
vn 0.6426 0.1361 0.7540
vn 0.2031 -0.7324 0.6498
vn 0.1293 0.7911 0.5978
vn 0.3173 -0.3951 0.8621
vn -0.2843 0.9295 0.2347
vn 0.1176 0.1572 0.9805
vn -0.7732 -0.3512 0.5280
vn -0.7681 0.6253 0.1381
vn 0.2099 -0.2313 0.9500
vn 0.5018 -0.7486 0.4333
vn 0.7681 0.6253 0.1381
vn -0.5018 -0.7486 0.4333
vn 0.7732 -0.3512 0.5280
vn 0.2843 0.9295 0.2347
vn -0.2099 -0.2313 0.9500
vn 0.3461 -0.4575 0.8191
vn 0.7490 0.3909 0.5350
vn 0.2745 -0.6437 0.7143
vn 0.2206 -0.2908 0.9310
vn -0.1176 0.1572 0.9805
vn 0.8294 0.5370 0.1539
vn -0.3173 -0.3951 0.8621
vn -0.6329 -0.1218 0.7646
vn -0.9039 -0.3226 0.2808
vn -0.6952 0.6789 0.2363
vn -0.5650 -0.4530 0.6896
vn -0.2271 0.2450 0.9425
vn -0.1473 -0.9408 0.3053
vn -0.1667 0.3832 0.9085
vn -0.5415 -0.6091 0.5794
vn -0.2927 0.5018 0.8140
vn -0.8050 -0.0060 0.5932
vn -0.1298 0.9394 0.3172
vn -0.7946 -0.5938 0.1263
vn -0.9811 0.0345 0.1904
vn -0.2493 -0.5582 0.7914
vn -0.1293 0.7911 0.5978
vn -0.0011 0.0011 1.0000
vn -0.1439 0.9753 0.1678
vn 0.1047 0.3545 0.9292
vn -0.3401 0.3365 -0.8781
vn -0.6053 -0.4676 0.6441
vn -0.5091 0.0713 0.8577
vn -0.8108 -0.5853 -0.0000
vn -0.2010 0.9719 0.1228
vn -0.7695 0.5586 0.3094
vn -0.2817 -0.0208 -0.9593
vn -0.7295 0.0550 0.6818
vn -0.2031 -0.7324 0.6498
vn -0.6426 0.1361 0.7540
vn -0.8983 0.3758 0.2275
vn -0.7110 0.7032 -0.0000
vn -0.4483 -0.8922 -0.0543
vn -0.8930 0.4501 -0.0031
vn -0.4290 -0.0388 0.9024
vn 0.2233 0.9725 0.0664
vn -0.8253 0.5646 -0.0000
vn 0.9339 -0.3575 -0.0000
vn 0.6509 -0.7592 -0.0000
vn 0.1459 0.9893 -0.0000
vn 0.2598 0.9656 -0.0000
vn 0.8092 0.5875 -0.0000
vn 0.8717 0.4900 -0.0000
vn 0.9897 -0.1431 -0.0000
vn 0.4113 -0.9115 -0.0000
vn -0.4113 -0.9115 -0.0000
vn 0.8074 0.5901 -0.0000
vn -0.9339 -0.3575 -0.0000
vn -0.6509 -0.7592 -0.0000
vn -0.1459 0.9893 -0.0000
vn -0.2598 0.9656 -0.0000
vn -0.8092 0.5875 -0.0000
vn -0.9897 -0.1431 -0.0000
vn -0.8626 0.5058 -0.0000
vn 0.0000 0.0000 -1.0000
vn -0.1626 0.9686 0.1879
vn 0.1298 0.9394 0.3172
vn -0.3849 -0.4749 0.7914
vn -0.5963 -0.3767 0.7089
vn 0.5963 -0.3767 0.7089
vn -0.5557 -0.5923 0.5834
vn -0.6633 -0.5783 0.4750
vn 0.5557 -0.5923 0.5834
vn 0.6633 -0.5783 0.4750
# 121 vertex normals

vt 0.6665 0.2457 0.0000
vt 0.6382 0.3047 0.0000
vt 0.5022 0.2718 0.0000
vt 0.5022 0.1556 0.0000
vt 0.0514 0.6136 0.0000
vt 0.0829 0.5779 0.0000
vt 0.1015 0.6879 0.0000
vt 0.0552 0.6942 0.0000
vt 0.9612 0.3830 0.0000
vt 0.8810 0.5126 0.0000
vt 0.8322 0.4196 0.0000
vt 0.9096 0.2736 0.0000
vt 0.5681 0.4847 0.0000
vt 0.5556 0.4415 0.0000
vt 0.7004 0.4573 0.0000
vt 0.6842 0.5842 0.0000
vt 0.6345 0.6396 0.0000
vt 0.6153 0.5062 0.0000
vt 0.7172 0.1034 0.0000
vt 0.6726 0.6755 0.0000
vt 0.7347 0.6661 0.0000
vt 0.5020 0.4443 0.0000
vt 0.5023 0.3666 0.0000
vt 0.5885 0.3863 0.0000
vt 0.5021 0.4917 0.0000
vt 0.5398 0.5150 0.0000
vt 0.5020 0.5051 0.0000
vt 0.6956 0.7075 0.0000
vt 0.7067 0.8318 0.0000
vt 0.5820 0.7239 0.0000
vt 0.5771 0.6771 0.0000
vt 0.8147 0.6898 0.0000
vt 0.7614 0.4616 0.0000
vt 0.5022 0.8895 0.0000
vt 0.6118 0.9651 0.0000
vt 0.5020 0.5121 0.0000
vt 0.4361 0.4855 0.0000
vt 0.4485 0.4424 0.0000
vt 0.8521 0.7915 0.0000
vt 0.7955 0.8538 0.0000
vt 0.5022 0.9774 0.0000
vt 0.5022 0.7772 0.0000
vt 0.5022 0.7108 0.0000
vt 0.8592 0.7939 0.0000
vt 0.8872 0.9243 0.0000
vt 0.8154 0.8758 0.0000
vt 0.6102 0.3603 0.0000
vt 0.8543 0.7474 0.0000
vt 0.8904 0.7594 0.0000
vt 0.7230 0.8989 0.0000
vt 0.7046 0.9618 0.0000
vt 0.9215 0.5779 0.0000
vt 0.9799 0.4451 0.0000
vt 0.9530 0.6136 0.0000
vt 0.9497 0.8128 0.0000
vt 0.5022 0.3405 0.0000
vt 0.4139 0.3840 0.0000
vt 0.3935 0.3634 0.0000
vt 0.1897 0.6898 0.0000
vt 0.2699 0.6660 0.0000
vt 0.3087 0.7075 0.0000
vt 0.2977 0.8318 0.0000
vt 0.3318 0.6756 0.0000
vt 0.4272 0.6770 0.0000
vt 0.9029 0.6878 0.0000
vt 0.9901 0.8355 0.0000
vt 0.9441 0.9551 0.0000
vt 0.5370 0.5219 0.0000
vt 0.5021 0.5222 0.0000
vt 0.5022 0.8518 0.0000
vt 0.4601 0.5601 0.0000
vt 0.5020 0.5663 0.0000
vt 0.4642 0.5149 0.0000
vt 0.4670 0.5221 0.0000
vt 0.3883 0.5059 0.0000
vt 0.3702 0.6398 0.0000
vt 0.5436 0.5602 0.0000
vt 0.5022 0.0260 0.0000
vt 0.2872 0.1033 0.0000
vt 0.3379 0.2456 0.0000
vt 0.1524 0.7916 0.0000
vt 0.1501 0.7474 0.0000
vt 0.9490 0.6925 0.0000
vt 0.3663 0.3049 0.0000
vt 0.0432 0.3830 0.0000
vt 0.0947 0.2736 0.0000
vt 0.1721 0.4195 0.0000
vt 0.1234 0.5126 0.0000
vt 0.3071 0.4565 0.0000
vt 0.3216 0.5847 0.0000
vt 0.4224 0.7239 0.0000
vt 0.2432 0.4614 0.0000
vt 0.2090 0.8539 0.0000
vt 0.3926 0.9651 0.0000
vt 0.1890 0.8758 0.0000
vt 0.1172 0.9244 0.0000
vt 0.1453 0.7939 0.0000
vt 0.1140 0.7594 0.0000
vt 0.2999 0.9618 0.0000
vt 0.2814 0.8990 0.0000
vt 0.0245 0.4451 0.0000
vt 0.0548 0.8129 0.0000
vt 0.0150 0.8374 0.0000
vt 0.0605 0.9552 0.0000
vt 0.7170 0.2712 0.0000
# 105 texture coords

g BH1219_001
usemtl initialShadingGroup
s off
f 1/1/1 2/2/1 3/3/1 4/4/1 
f 5/5/2 6/6/2 7/7/2 8/8/2 
f 9/9/3 10/10/3 11/11/3 12/12/3 
f 13/13/4 14/14/4 15/15/4 
f 16/16/5 17/17/5 18/18/5 
f 1/1/6 19/19/6 12/12/6 11/11/6 
f 20/20/7 17/17/7 16/16/7 21/21/7 
f 14/14/8 22/22/8 23/23/8 24/24/8 
f 13/13/9 18/18/9 25/25/9 
f 25/25/10 18/18/10 26/26/10 27/27/10 
f 28/28/11 29/29/11 30/30/11 31/31/11 
f 10/10/12 32/32/12 33/33/12 11/11/12 
f 34/34/13 29/29/13 35/35/13 
f 24/24/14 15/15/14 14/14/14 
f 15/15/15 16/16/15 18/18/15 13/13/15 
f 36/36/16 27/27/16 26/26/16 
f 25/25/17 37/37/17 38/38/17 22/22/17 
f 29/29/18 39/39/18 40/40/18 
f 41/41/19 34/34/19 35/35/19 
f 30/30/20 42/42/20 43/43/20 31/31/20 
f 44/44/21 45/45/21 46/46/21 
f 33/33/22 47/47/22 2/2/22 11/11/22 
f 16/16/23 15/15/23 33/33/23 21/21/23 
f 48/48/24 49/49/24 44/44/24 39/39/24 
f 35/35/25 29/29/25 45/50/25 50/51/25 
f 51/52/26 52/53/26 53/54/26 
f 54/55/27 45/45/27 44/44/27 49/49/27 
f 32/32/28 21/21/28 33/33/28 
f 55/56/29 23/23/29 56/57/29 57/58/29 
f 58/59/30 59/60/30 60/61/30 61/62/30 
f 60/61/31 59/60/31 62/63/31 63/64/31 
f 46/46/32 40/40/32 39/39/32 44/44/32 
f 49/49/33 48/48/33 32/32/33 54/65/33 
f 64/66/34 50/67/34 45/45/34 54/55/34 
f 20/20/35 31/31/35 17/17/35 
f 40/40/36 46/46/36 45/50/36 29/29/36 
f 32/32/37 10/10/37 51/52/37 54/65/37 
f 52/53/38 51/52/38 10/10/38 9/9/38 
f 26/26/39 65/68/39 66/69/39 36/36/39 
f 30/30/40 29/29/40 67/70/40 42/42/40 
f 55/56/41 3/3/41 2/2/41 47/47/41 
f 43/43/42 63/64/42 68/71/42 69/72/42 
f 32/32/43 48/48/43 39/39/43 29/29/43 
f 70/73/44 71/74/44 68/71/44 72/75/44 
f 72/75/45 68/71/45 63/64/45 73/76/45 
f 66/69/46 65/68/46 74/77/46 69/72/46 
f 4/4/47 75/78/47 19/19/47 1/1/47 
f 18/18/48 17/17/48 31/31/48 74/77/48 
f 76/79/49 75/78/49 4/4/49 77/80/49 
f 26/26/50 18/18/50 74/77/50 65/68/50 
f 74/77/51 31/31/51 43/43/51 69/72/51 
f 68/71/52 71/74/52 66/69/52 69/72/52 
f 28/28/53 31/31/53 20/20/53 21/21/53 
f 32/32/54 29/29/54 28/28/54 21/21/54 
f 24/24/55 23/23/55 55/56/55 47/47/55 
f 14/14/56 13/13/56 25/25/56 22/22/56 
f 78/81/57 79/82/57 58/59/57 61/62/57 
f 53/54/58 64/83/58 54/65/58 51/52/58 
f 55/56/59 57/58/59 80/84/59 3/3/59 
f 81/85/60 82/86/60 83/87/60 84/88/60 
f 85/89/61 38/38/61 37/37/61 
f 72/75/62 73/76/62 86/90/62 
f 82/86/63 76/79/63 77/80/63 83/87/63 
f 62/63/64 59/60/64 86/90/64 73/76/64 
f 38/38/65 56/57/65 23/23/65 22/22/65 
f 25/25/66 72/75/66 37/37/66 
f 25/25/67 27/27/67 70/73/67 72/75/67 
f 60/61/68 63/64/68 87/91/68 61/62/68 
f 88/92/69 58/59/69 84/88/69 83/87/69 
f 67/70/70 34/34/70 61/62/70 
f 85/89/71 56/57/71 38/38/71 
f 72/75/72 86/90/72 85/89/72 37/37/72 
f 70/73/73 27/27/73 36/36/73 
f 87/91/74 42/42/74 67/70/74 61/62/74 
f 89/93/75 78/81/75 61/62/75 
f 34/34/76 41/41/76 90/94/76 
f 43/43/77 42/42/77 87/91/77 63/64/77 
f 91/95/78 92/96/78 93/97/78 
f 80/84/79 57/58/79 88/92/79 83/87/79 
f 88/92/80 85/89/80 86/90/80 59/60/80 
f 93/97/81 94/98/81 79/82/81 78/81/81 
f 90/94/82 95/99/82 92/100/82 61/62/82 
f 6/6/83 5/5/83 96/101/83 
f 93/97/84 92/96/84 7/102/84 94/98/84 
f 88/92/85 59/60/85 58/59/85 
f 70/73/86 36/36/86 66/69/86 71/74/86 
f 96/101/87 81/85/87 84/88/87 6/6/87 
f 6/6/88 84/88/88 58/59/88 7/7/88 
f 78/81/89 89/93/89 91/95/89 93/97/89 
f 58/59/90 79/82/90 94/98/90 7/7/90 
f 8/103/91 7/102/91 92/96/91 95/104/91 
f 73/76/92 63/64/92 62/63/92 
f 89/93/93 61/62/93 92/100/93 91/95/93 
f 97/105/94 5/105/94 8/105/94 98/105/94 
f 99/105/95 9/105/95 12/105/95 100/105/95 
f 100/105/96 12/105/96 19/105/96 101/105/96 
f 102/105/97 41/105/97 35/105/97 103/105/97 
f 103/105/98 35/105/98 50/105/98 104/105/98 
f 105/105/99 53/105/99 52/105/99 106/105/99 
f 104/105/100 50/105/100 64/105/100 107/105/100 
f 106/105/101 52/105/101 9/105/101 99/105/101 
f 101/105/102 19/105/102 75/105/102 108/105/102 
f 108/105/103 75/105/103 76/105/103 109/105/103 
f 107/105/104 64/105/104 53/105/104 105/105/104 
f 110/105/105 82/105/105 81/105/105 111/105/105 
f 109/105/106 76/105/106 82/105/106 110/105/106 
f 112/105/107 90/105/107 41/105/107 102/105/107 
f 113/105/108 95/105/108 90/105/108 112/105/108 
f 114/105/109 96/105/109 5/105/109 97/105/109 
f 111/105/110 81/105/110 96/105/110 114/105/110 
f 98/105/111 8/105/111 95/105/111 113/105/111 
f 115/105/112 97/105/112 98/105/112 
f 99/105/112 100/105/112 115/105/112 
f 115/105/112 100/105/112 101/105/112 
f 102/105/112 103/105/112 115/105/112 
f 103/105/112 104/105/112 115/105/112 
f 105/105/112 106/105/112 115/105/112 
f 115/105/112 104/105/112 107/105/112 
f 106/105/112 99/105/112 115/105/112 
f 101/105/112 108/105/112 115/105/112 
f 115/105/112 108/105/112 109/105/112 
f 107/105/112 105/105/112 115/105/112 
f 110/105/112 111/105/112 115/105/112 
f 109/105/112 110/105/112 115/105/112 
f 112/105/112 102/105/112 115/105/112 
f 115/105/112 113/105/112 112/105/112 
f 114/105/112 97/105/112 115/105/112 
f 115/105/112 111/105/112 114/105/112 
f 98/105/112 113/105/112 115/105/112 
f 90/94/113 61/62/113 34/34/113 
f 67/70/114 29/29/114 34/34/114 
f 3/3/115 80/84/115 77/80/115 4/4/115 
f 80/84/116 83/87/116 77/80/116 
f 1/1/117 11/11/117 2/2/117 
f 57/58/118 56/57/119 85/89/119 88/92/119 
f 47/47/120 33/33/121 15/15/121 24/24/121 
# 90 polygons - 46 triangles

